<svg width="717" height="717" viewBox="0 0 717 717" fill="none" xmlns="http://www.w3.org/2000/svg">
<path fill-rule="evenodd" clip-rule="evenodd" d="M358.5 717C556.494 717 717 556.494 717 358.5C717 160.506 556.494 0 358.5 0C160.506 0 0 160.506 0 358.5C0 556.494 160.506 717 358.5 717ZM394.4 216.4C394.4 196.849 378.551 181 359 181C339.449 181 323.6 196.849 323.6 216.4V322.6H217.4C197.849 322.6 182 338.449 182 358C182 377.551 197.849 393.4 217.4 393.4H323.6V499.6C323.6 519.151 339.449 535 359 535C378.551 535 394.4 519.151 394.4 499.6V393.4H500.6C520.151 393.4 536 377.551 536 358C536 338.449 520.151 322.6 500.6 322.6H394.4V216.4Z" fill="white"/>
</svg>
