<?xml version="1.0" encoding="iso-8859-1"?>
<!-- Generator: Adobe Illustrator 19.0.0, SVG Export Plug-In . SVG Version: 6.00 Build 0)  -->
<svg version="1.1" id="Layer_1" xmlns="http://www.w3.org/2000/svg" xmlns:xlink="http://www.w3.org/1999/xlink" x="0px" y="0px"
	 viewBox="0 0 512 512" style="enable-background:new 0 0 512 512;" xml:space="preserve">
<polygon style="fill:#847C7C;" points="479.339,85.929 479.339,501.801 32.661,501.801 32.661,10.199 403.352,10.199 "/>
<rect x="94.21" y="284.619" style="fill:#F2F2F2;" width="323.58" height="217.182"/>
<rect x="94.21" y="235.846" style="fill:#FF757C;" width="323.58" height="48.775"/>
<polygon style="fill:#F2F2F2;" points="327.879,10.199 327.879,120.841 276.259,120.841 276.259,10.199 147.748,10.199 
	147.748,155.754 364.252,155.754 364.252,10.199 "/>
<g>
	<path style="fill:#4D4D4D;" d="M479.339,512c5.632,0,10.199-4.566,10.199-10.199V85.928c0-2.711-1.08-5.311-2.999-7.224
		L410.554,2.975C408.64,1.07,406.052,0,403.353,0H32.661c-5.632,0-10.199,4.566-10.199,10.199v491.602
		c0,5.633,4.567,10.199,10.199,10.199H479.339z M286.458,20.398h31.222v90.244h-31.222V20.398z M266.06,20.398v100.443
		c0,5.633,4.567,10.199,10.199,10.199h51.62c5.632,0,10.199-4.566,10.199-10.199V20.398h15.974v125.156H157.947V20.398H266.06z
		 M407.593,274.424H104.407v-28.377h303.186L407.593,274.424L407.593,274.424z M104.407,491.602V294.822h303.186v196.779H104.407z
		 M427.991,235.848c0-5.633-4.567-10.199-10.199-10.199H94.208c-5.632,0-10.199,4.566-10.199,10.199v255.753H42.86V20.398h94.688
		v135.356c0,5.633,4.567,10.199,10.199,10.199h216.504c5.632,0,10.199-4.566,10.199-10.199V20.398h24.687l70.001,69.765v401.439
		H427.99V235.848H427.991z"/>
	<path style="fill:#4D4D4D;" d="M321.719,325.767h-6.161c-5.632,0-10.199,4.566-10.199,10.199c0,5.633,4.567,10.199,10.199,10.199
		h6.161c5.632,0,10.199-4.566,10.199-10.199C331.918,330.333,327.351,325.767,321.719,325.767z"/>
	<path style="fill:#4D4D4D;" d="M143.047,346.165h128.356c5.632,0,10.199-4.566,10.199-10.199c0-5.633-4.567-10.199-10.199-10.199
		H143.047c-5.632,0-10.199,4.566-10.199,10.199C132.848,341.599,137.414,346.165,143.047,346.165z"/>
	<path style="fill:#4D4D4D;" d="M321.719,375.054H143.047c-5.632,0-10.199,4.566-10.199,10.199c0,5.633,4.567,10.199,10.199,10.199
		h178.672c5.632,0,10.199-4.566,10.199-10.199C331.918,379.62,327.351,375.054,321.719,375.054z"/>
</g>
<g>
</g>
<g>
</g>
<g>
</g>
<g>
</g>
<g>
</g>
<g>
</g>
<g>
</g>
<g>
</g>
<g>
</g>
<g>
</g>
<g>
</g>
<g>
</g>
<g>
</g>
<g>
</g>
<g>
</g>
</svg>
